wght1000_wdth50.ufo
<glyph name="A" format="2">
	<unicode hex="0041"/>
	<advance width="1443"/>
	<outline>
		<contour>
			<point x="-173.1618041992" y="0" type="line"/>
			<point x="-177.5357055664" y="99.9990234375" type="line"/>
			<point x="19.005065918" y="116.9990234375" type="line"/>
			<point x="355.0387573242" y="660" type="line"/>
			<point x="897.6209106445" y="1520" type="line"/>
			<point x="1043.5556640625" y="1502" type="line"/>
			<point x="1082.8790283203" y="655" type="line"/>
			<point x="1127.3571166992" y="119.9990234375" type="line"/>
			<point x="1326.7675170898" y="99.9990234375" type="line"/>
			<point x="1309.055480957" y="0" type="line"/>
			<point x="737.9975585938" y="0" type="line"/>
			<point x="766.7095947266" y="99.9990234375" type="line"/>
			<point x="960.1199951172" y="124.9990234375" type="line"/>
			<point x="922.7835693359" y="648" type="line"/>
			<point x="891" y="1166" type="line"/>
			<point x="886" y="1287" type="line"/>
			<point x="876" y="1287" type="line"/>
			<point x="799" y="1167" type="line"/>
			<point x="445.8718261719" y="634.6384277344" type="line"/>
			<point x="149.2272338867" y="116.9990234375" type="line"/>
			<point x="371.0939331055" y="99.9990234375" type="line"/>
			<point x="384.4678344727" y="0" type="line"/>
		</contour>
		<contour>
			<point x="267.4494628906" y="436.9597167969" type="line"/>
			<point x="344.2677001953" y="542.1755371094" type="line"/>
			<point x="537.080078125" y="382.3510742188" type="line"/>
			<point x="525.1962890625" y="300.9194335938" type="line"/>
		</contour>
		<contour>
			<point x="537.080078125" y="382.3510742188" type="line"/>
			<point x="1113.5873413086" y="544.1755371094" type="line"/>
			<point x="1121.8869628906" y="448.9597167969" type="line"/>
			<point x="525.1962890625" y="300.9194335938" type="line"/>
		</contour>
	</outline>
	<anchor name="bottom" x="523" y="0"/>
	<anchor name="ogonek" x="1098" y="0"/>
	<anchor name="top" x="954" y="1500"/>
	<anchor name="tonos" x="613" y="1500"/>
</glyph>
<glyph name="B" format="2">
	<unicode hex="0042"/>
	<advance width="1246"/>
	<outline>
		<contour>
			<point x="-53.7199707031" y="0" type="line"/>
			<point x="-50.7901611328" y="99.9990234375" type="line"/>
			<point x="136.9350585938" y="113.9990234375" type="line"/>
			<point x="278.0052490234" y="818" type="line"/>
			<point x="386" y="1362" type="line"/>
			<point x="193" y="1386" type="line"/>
			<point x="206" y="1500" type="line"/>
			<point x="605.9530639648" y="1500" type="line" smooth="yes"/>
			<point x="841.7417602539" y="1500"/>
			<point x="1068.5874023438" y="1331"/>
			<point x="1070.6400146484" y="1171" type="qcurve" smooth="yes"/>
			<point x="1071.1413574219" y="1016"/>
			<point x="901.5170898438" y="854"/>
			<point x="745.4686279297" y="830" type="qcurve"/>
			<point x="746.0844726562" y="823" type="line"/>
			<point x="887.5556640625" y="794"/>
			<point x="1049.7442016602" y="589"/>
			<point x="1031.1397094727" y="403" type="qcurve" smooth="yes"/>
			<point x="1012.5352172852" y="219"/>
			<point x="712.4837036133" y="0"/>
			<point x="457.5891723633" y="0" type="qcurve" smooth="yes"/>
		</contour>
		<contour>
			<point x="286.7311401367" y="126.4821777344" type="line"/>
			<point x="325.6444091797" y="107.177734375" type="line"/>
			<point x="478.8940429688" y="107.177734375" type="line" smooth="yes"/>
			<point x="642.1892700195" y="107.177734375"/>
			<point x="784.5062255859" y="211.05078125"/>
			<point x="811.6586914062" y="402.05078125" type="qcurve" smooth="yes"/>
			<point x="841.8111572266" y="609.05078125"/>
			<point x="752.9853515625" y="739.0231933594"/>
			<point x="596.8881835938" y="739.0231933594" type="qcurve" smooth="yes"/>
			<point x="419.5809936523" y="739.0231933594" type="line"/>
			<point x="401.5809936523" y="730.4270019531" type="line"/>
		</contour>
		<contour>
			<point x="427.8911743164" y="877.9577636719" type="line"/>
			<point x="435.6924438477" y="853.9641113281" type="line"/>
			<point x="589.6296386719" y="853.9641113281" type="line" smooth="yes"/>
			<point x="738.4951171875" y="853.9641113281"/>
			<point x="866.0036621094" y="974.7568359375"/>
			<point x="881.5006713867" y="1125.7568359375" type="qcurve" smooth="yes"/>
			<point x="898.8056030273" y="1281.7568359375"/>
			<point x="804.8945922852" y="1384.7292480469"/>
			<point x="683.1815795898" y="1384.7292480469" type="qcurve" smooth="yes"/>
			<point x="578" y="1380" type="line"/>
			<point x="549" y="1362" type="line"/>
		</contour>
	</outline>
	<anchor name="bottom" x="630" y="0"/>
	<anchor name="top" x="630" y="1500"/>
</glyph>
<glyph name="F" format="2">
	<unicode hex="0046"/>
	<advance width="1061"/>
	<outline>
		<contour>
			<point x="-58.0484008789" y="0" type="line"/>
			<point x="-55.1185913086" y="99.9990234375" type="line"/>
			<point x="131.813293457" y="122.9990234375" type="line"/>
			<point x="269.8834838867" y="817" type="line"/>
			<point x="371.9536743164" y="1365.0009765625" type="line"/>
			<point x="176.8262329102" y="1387.0009765625" type="line"/>
			<point x="181.9627075195" y="1500" type="line"/>
			<point x="1065.3047485352" y="1500" type="line"/>
			<point x="1018.7139282227" y="1156.7849121094" type="line"/>
			<point x="928.3656616211" y="1156.7849121094" type="line"/>
			<point x="903.7743530273" y="1379.9216308594" type="line"/>
			<point x="569.8955688477" y="1379.9216308594" type="line"/>
			<point x="525.8955688477" y="1355.9216308594" type="line"/>
			<point x="418.430480957" y="794" type="line"/>
			<point x="298.3602905273" y="117.9990234375" type="line"/>
			<point x="564.335144043" y="99.9990234375" type="line"/>
			<point x="554.9379272461" y="0" type="line"/>
		</contour>
		<contour>
			<point x="202.7798461914" y="705.0041503906" type="line"/>
			<point x="222.8115844727" y="790.5666503906" type="line"/>
			<point x="697.9664916992" y="803.5666503906" type="line"/>
			<point x="781.7118530273" y="965.3666992188" type="line"/>
			<point x="858.2713012695" y="965.3666992188" type="line"/>
			<point x="772.168762207" y="501.8227539062" type="line"/>
			<point x="700.6093139648" y="501.8227539062" type="line"/>
			<point x="678.8353881836" y="678.8054199219" type="line"/>
		</contour>
	</outline>
	<anchor name="bottom" x="578" y="0"/>
	<anchor name="top" x="622" y="1500"/>
</glyph>
<glyph name="G" format="2">
	<unicode hex="0047"/>
	<advance width="1374"/>
	<outline>
		<contour>
			<point x="76.9234619141" y="848" type="qcurve" smooth="yes"/>
			<point x="160.9234619141" y="1230"/>
			<point x="637.2244873047" y="1534.0545654297"/>
			<point x="948.7213745117" y="1522.8578491211" type="qcurve" smooth="yes"/>
			<point x="1067.4625244141" y="1512.6021118164"/>
			<point x="1239.3323974609" y="1460.2562866211"/>
			<point x="1272.2645874023" y="1441.1432495117" type="qcurve" smooth="yes"/>
			<point x="1292.0116711292" y="1432.1430664062" type="line"/>
			<point x="1296.8738537464" y="1419" type="line"/>
			<point x="1220.6853771839" y="1010.2678222656" type="line"/>
			<point x="1113.8987560901" y="1010.2678222656" type="line"/>
			<point x="1149.2167492542" y="1276.3063964844" type="line"/>
			<point x="1120.5136108398" y="1320.5621337891"/>
			<point x="980.1799926758" y="1381.9314575195"/>
			<point x="897.3278808594" y="1390.1642456055" type="qcurve" smooth="yes"/>
			<point x="686.6467895508" y="1414.8056030273"/>
			<point x="337.0584106445" y="1196"/>
			<point x="259.9305419922" y="802" type="qcurve" smooth="yes"/>
			<point x="185.4044799805" y="432"/>
			<point x="398.4437866211" y="154.8146362305"/>
			<point x="598.2523803711" y="153.6491699219" type="qcurve" smooth="yes"/>
			<point x="712.209777832" y="152.6630249023"/>
			<point x="861.7159423828" y="156.0783691406"/>
			<point x="950.7192382812" y="161.0783691406" type="qcurve"/>
			<point x="1034.2224865589" y="581.0009765625" type="line"/>
			<point x="867.991285387" y="603.2609863281" type="line"/>
			<point x="887.753004137" y="712" type="line"/>
			<point x="1373.3891735706" y="712" type="line"/>
			<point x="1355.5622692737" y="602.6109619141" type="line"/>
			<point x="1231.8741589221" y="581.0009765625" type="line"/>
			<point x="1156.8039684925" y="172" type="line"/>
			<point x="1094.2940063477" y="159" type="line"/>
			<point x="979.9727783203" y="68.383605957"/>
			<point x="676.8116455078" y="-41.4291992188"/>
			<point x="503.4122924805" y="-11.4291992188" type="qcurve" smooth="yes"/>
			<point x="352.4051513672" y="12.2330932617"/>
			<point x="-8.0765380859" y="460"/>
		</contour>
	</outline>
	<anchor name="bottom" x="667" y="0"/>
	<anchor name="top" x="907" y="1492"/>
</glyph>
<glyph name="I" format="2">
	<unicode hex="0049"/>
	<advance width="782"/>
	<outline>
		<contour>
			<point x="-40.6821899414" y="0" type="line"/>
			<point x="-38.2849731445" y="97.9990234375" type="line"/>
			<point x="161.9076538086" y="112.9990234375" type="line"/>
			<point x="308.5104370117" y="848" type="line"/>
			<point x="403.4506225586" y="1364.0009765625" type="line"/>
			<point x="180.7365112305" y="1387.0009765625" type="line"/>
			<point x="185.4703979492" y="1500" type="line"/>
			<point x="811.9934082031" y="1500" type="line"/>
			<point x="791.93359375" y="1387.0009765625" type="line"/>
			<point x="571.7409667969" y="1364.0009765625" type="line"/>
			<point x="464.80078125" y="816" type="line"/>
			<point x="330.1979980469" y="118.9990234375" type="line"/>
			<point x="559.912109375" y="97.9990234375" type="line"/>
			<point x="552.5148925781" y="0" type="line"/>
		</contour>
	</outline>
	<anchor name="bottom" x="220" y="0"/>
	<anchor name="ogonek" x="356" y="0"/>
	<anchor name="top" x="503" y="1500"/>
	<anchor name="tonos" x="81" y="1500"/>
	<anchor name="yu_dash" x="365" y="795"/>
	<anchor name="liga" x="712" y="0"/>
</glyph>
<glyph name="J" format="2">
	<unicode hex="004A"/>
	<advance width="917"/>
	<outline>
		<contour>
			<point x="-118.3843383789" y="-232" type="qcurve"/>
			<point x="-78.3589477539" y="-91.5622558594" type="line"/>
			<point x="-56.1272583008" y="-96.5622558594"/>
			<point x="7.7196044922" y="-99.5622558594"/>
			<point x="52.9176635742" y="-99.5622558594" type="qcurve" smooth="yes"/>
			<point x="158.9236450195" y="-99.5622558594"/>
			<point x="260.6911010742" y="-15.6616210938"/>
			<point x="291.5917358398" y="140.4377441406" type="qcurve" smooth="yes"/>
			<point x="415.8163452148" y="754" type="line"/>
			<point x="528.7565307617" y="1365.0009765625" type="line"/>
			<point x="318.0817260742" y="1387.0009765625" type="line"/>
			<point x="331.5155639648" y="1500" type="line"/>
			<point x="914.7778320312" y="1500" type="line"/>
			<point x="901.3439941406" y="1387.0009765625" type="line"/>
			<point x="697.1768798828" y="1365.0009765625" type="line"/>
			<point x="576.1066894531" y="754" type="line"/>
			<point x="465.8566894531" y="207" type="line" smooth="yes"/>
			<point x="417.6066894531" y="-34"/>
			<point x="199.2694091797" y="-260"/>
			<point x="39.9342651367" y="-260" type="qcurve" smooth="yes"/>
			<point x="-14.2375488281" y="-260"/>
			<point x="-120.0786132812" y="-241"/>
		</contour>
	</outline>
	<anchor name="bottom" x="376" y="-208"/>
	<anchor name="top" x="533" y="1500"/>
	<anchor name="_liga" x="0" y="0"/>
</glyph>
<glyph name="L" format="2">
	<unicode hex="004C"/>
	<advance width="1133"/>
	<outline>
		<contour>
			<point x="-41.8048706055" y="0" type="line"/>
			<point x="-44.6683959961" y="99.9990234375" type="line"/>
			<point x="146.0568237305" y="117.9990234375" type="line"/>
			<point x="292.1270141602" y="848" type="line"/>
			<point x="387.1972045898" y="1374.0009765625" type="line"/>
			<point x="179.4179077148" y="1386.0009765625" type="line"/>
			<point x="185.0217895508" y="1500" type="line"/>
			<point x="798.6099853516" y="1500" type="line"/>
			<point x="783.0061035156" y="1386.0009765625" type="line"/>
			<point x="565.4875488281" y="1374.0009765625" type="line"/>
			<point x="443.4173583984" y="754" type="line"/>
			<point x="320.5548095703" y="137.79296875" type="line"/>
			<point x="353.5548095703" y="110.79296875" type="line"/>
			<point x="791.9387207031" y="110.79296875" type="line"/>
			<point x="939.0778808594" y="397.6340332031" type="line"/>
			<point x="1036.2423095703" y="397.6340332031" type="line"/>
			<point x="914.7967529297" y="0" type="line"/>
		</contour>
	</outline>
	<anchor name="bottom" x="535" y="0"/>
	<anchor name="centerright" x="755" y="750"/>
	<anchor name="top" x="878" y="1500"/>
	<anchor name="topright" x="804" y="1001"/>
	<anchor name="center" x="397" y="750"/>
	<anchor name="liga" x="1104" y="0"/>
</glyph>
<glyph name="M" format="2">
	<unicode hex="004D"/>
	<advance width="1975"/>
	<outline>
		<contour>
			<point x="-51.7496337891" y="0" type="line"/>
			<point x="-54.1457519531" y="99.9990234375" type="line"/>
			<point x="165.9816894531" y="144.9990234375" type="line"/>
			<point x="290.0518798828" y="754" type="line"/>
			<point x="407.9920654297" y="1343.0009765625" type="line"/>
			<point x="198.4624023438" y="1389.0009765625" type="line"/>
			<point x="207.1962890625" y="1500" type="line"/>
			<point x="569.2090454102" y="1500" type="line"/>
			<point x="729.3101806641" y="679.8829956055" type="line"/>
			<point x="834.4662475586" y="328.2642822266" type="line"/>
			<point x="850.6779174805" y="191.2995605469" type="line"/>
			<point x="860.6779174805" y="191.2995605469" type="line"/>
			<point x="927.5444946289" y="328.2642822266" type="line"/>
			<point x="1212.9376831055" y="792.4276123047" type="line"/>
			<point x="1641.4630737305" y="1500" type="line"/>
			<point x="1998.297668457" y="1500" type="line"/>
			<point x="1978.3030395508" y="1388.0009765625" type="line"/>
			<point x="1770.7733764648" y="1365.0009765625" type="line"/>
			<point x="1657.833190918" y="771" type="line"/>
			<point x="1537.7630004883" y="118.9990234375" type="line"/>
			<point x="1737.6185913086" y="99.9990234375" type="line"/>
			<point x="1735.0147094727" y="0" type="line"/>
			<point x="1188.3502197266" y="0" type="line"/>
			<point x="1193.9541015625" y="99.9990234375" type="line"/>
			<point x="1378.47265625" y="120.9990234375" type="line"/>
			<point x="1505.5428466797" y="752.256652832" type="line"/>
			<point x="1559.5428466797" y="1012.256652832" type="line"/>
			<point x="1588.5075683594" y="1146" type="line"/>
			<point x="1578.5075683594" y="1148" type="line"/>
			<point x="1522.6939086914" y="1016.3627319336" type="line"/>
			<point x="1265.2565307617" y="643.057434082" type="line"/>
			<point x="837.1185913086" y="0" type="line"/>
			<point x="852.5358276367" y="0" type="line"/>
			<point x="630.4097900391" y="536.1026611328" type="line"/>
			<point x="517.0238037109" y="1017.0352783203" type="line"/>
			<point x="505.5023193359" y="1157" type="line"/>
			<point x="495.5023193359" y="1155" type="line"/>
			<point x="472.5023193359" y="1013" type="line"/>
			<point x="421.5023193359" y="752" type="line"/>
			<point x="297.4321289062" y="142.9990234375" type="line"/>
			<point x="504.4180908203" y="97.9990234375" type="line"/>
			<point x="495.48828125" y="-2" type="line"/>
		</contour>
	</outline>
	<anchor name="bottom" x="768" y="0"/>
	<anchor name="top" x="1048" y="1500"/>
</glyph>
<glyph name="N" format="2">
	<unicode hex="004E"/>
	<advance width="1503"/>
	<outline>
		<contour>
			<point x="-59.5158081055" y="0" type="line"/>
			<point x="-58.9119262695" y="99.9990234375" type="line"/>
			<point x="161.813293457" y="144.9990234375" type="line"/>
			<point x="283.8834838867" y="754" type="line"/>
			<point x="402.9536743164" y="1342.0009765625" type="line"/>
			<point x="193.3588256836" y="1390.0009765625" type="line"/>
			<point x="201.9627075195" y="1500" type="line"/>
			<point x="622.3959350586" y="1500" type="line"/>
			<point x="874.1977539062" y="762.2610473633" type="line"/>
			<point x="1004.7622070312" y="435.7661743164" type="line"/>
			<point x="1043.9210205078" y="316.8898925781" type="line"/>
			<point x="1053.9210205078" y="318.8898925781" type="line"/>
			<point x="1073.6643676758" y="454.1465454102" type="line"/>
			<point x="1142.7252807617" y="803" type="line"/>
			<point x="1250.7954711914" y="1353.0009765625" type="line"/>
			<point x="1029.6139526367" y="1388.0009765625" type="line"/>
			<point x="1041.815612793" y="1500" type="line"/>
			<point x="1605.4055786133" y="1500" type="line"/>
			<point x="1587.203918457" y="1388.0009765625" type="line"/>
			<point x="1378.0112915039" y="1363.0009765625" type="line"/>
			<point x="1267.2861938477" y="779" type="line"/>
			<point x="1113.9411010742" y="0" type="line"/>
			<point x="1005.4899291992" y="0" type="line"/>
			<point x="749.9002685547" y="617.2398681641" type="line"/>
			<point x="568.8057250977" y="1233.0119628906" type="line"/>
			<point x="524.1249389648" y="1350.7821655273" type="line"/>
			<point x="514.1249389648" y="1348.7821655273" type="line"/>
			<point x="495.5584716797" y="1216.5255126953" type="line"/>
			<point x="394.0993041992" y="701" type="line"/>
			<point x="281.0291137695" y="144.9990234375" type="line"/>
			<point x="485.4172973633" y="99.9990234375" type="line"/>
			<point x="477.8134155273" y="0" type="line"/>
		</contour>
	</outline>
	<anchor name="bottom" x="640" y="0"/>
	<anchor name="top" x="884" y="1500"/>
	<anchor name="engtail" x="1041" y="0"/>
	<anchor name="liga" x="1432" y="0"/>
</glyph>
<glyph name="O" format="2">
	<unicode hex="004F"/>
	<advance width="1599"/>
	<outline>
		<contour>
			<point x="108.132040028" y="893" type="qcurve" smooth="yes"/>
			<point x="184.8487758678" y="1222"/>
			<point x="634.4491176647" y="1577.5341796875"/>
			<point x="955.7128505748" y="1520.8578491211" type="qcurve" smooth="yes"/>
			<point x="1254.1723842662" y="1467.798828125"/>
			<point x="1530.8010463756" y="1039"/>
			<point x="1453.1109218639" y="684" type="qcurve" smooth="yes"/>
			<point x="1372.6774501842" y="319"/>
			<point x="899.2915043311" y="-71.1392549862"/>
			<point x="576.4632167858" y="-20.4291992188" type="qcurve" smooth="yes"/>
			<point x="294.6942092791" y="26.693638888"/>
			<point x="17.4153041881" y="502"/>
		</contour>
		<contour>
			<point x="277.8275510676" y="793" type="qcurve" smooth="yes"/>
			<point x="209.9415037043" y="464.6815185547"/>
			<point x="393.3841306575" y="128.2094726562"/>
			<point x="608.74448222" y="92.357421875" type="qcurve" smooth="yes"/>
			<point x="852.1749021418" y="51.693359375"/>
			<point x="1201.4178830989" y="427.2755126953"/>
			<point x="1264.9424802668" y="756" type="qcurve" smooth="yes"/>
			<point x="1330.4841672786" y="1092.5556640625"/>
			<point x="1097.8410398371" y="1364.298034668"/>
			<point x="884.5693113215" y="1393.6547241211" type="qcurve" smooth="yes"/>
			<point x="661.376928509" y="1424.6154174805"/>
			<point x="338.9816648371" y="1099.9958496094"/>
		</contour>
	</outline>
	<anchor name="bottom" x="612" y="0"/>
	<anchor name="center" x="765" y="756"/>
	<anchor name="ogonek" x="844" y="0"/>
	<anchor name="top" x="906" y="1500"/>
	<anchor name="topright" x="1044" y="1500"/>
	<anchor name="tonos" x="230" y="1500"/>
	<anchor name="_yu_dash" x="174" y="795"/>
</glyph>
<glyph name="P" format="2">
	<unicode hex="0050"/>
	<advance width="1147"/>
	<outline>
		<contour>
			<point x="-51.9266357422" y="0" type="line"/>
			<point x="-51.9327392578" y="99.9990234375" type="line"/>
			<point x="139.3250732422" y="119.9990234375" type="line"/>
			<point x="256" y="754" type="line"/>
			<point x="379.5554199219" y="1365.0009765625" type="line"/>
			<point x="181.4279785156" y="1387.0009765625" type="line"/>
			<point x="192.6170654297" y="1500" type="line"/>
			<point x="860.2755126953" y="1500" type="line" smooth="yes"/>
			<point x="953.5017089844" y="1500"/>
			<point x="1089.9154663086" y="1271"/>
			<point x="1056.1721191406" y="1051" type="qcurve" smooth="yes"/>
			<point x="1021.4287719727" y="826"/>
			<point x="821.3119506836" y="618.6171875"/>
			<point x="682.8356933594" y="618.6171875" type="qcurve" smooth="yes"/>
			<point x="552.3939819336" y="618.6171875"/>
			<point x="372.8319091797" y="641.5707397461"/>
			<point x="317" y="628" type="qcurve"/>
			<point x="337" y="733" type="line"/>
			<point x="415.3661499023" y="746"/>
			<point x="480.4057617188" y="743"/>
			<point x="590.0395507812" y="743" type="qcurve" smooth="yes"/>
			<point x="657.8534545898" y="743"/>
			<point x="812.5936889648" y="871.4946289062"/>
			<point x="843.5936889648" y="1041.4946289062" type="qcurve" smooth="yes"/>
			<point x="879.5936889648" y="1239.4946289062"/>
			<point x="867.5611572266" y="1386.8962402344"/>
			<point x="769.3571166992" y="1386.8962402344" type="qcurve" smooth="yes"/>
			<point x="580.9310913086" y="1386.8962402344" type="line"/>
			<point x="540.0903930664" y="1351.684387207" type="line"/>
			<point x="419" y="764" type="line"/>
			<point x="307.8720703125" y="117.9990234375" type="line"/>
			<point x="557.5209960938" y="99.9990234375" type="line"/>
			<point x="542.5270996094" y="0" type="line"/>
		</contour>
	</outline>
	<anchor name="bottom" x="634" y="0"/>
	<anchor name="top" x="634" y="1500"/>
</glyph>
<glyph name="Q" format="2">
	<unicode hex="0051"/>
	<advance width="1586"/>
	<outline>
		<contour>
			<point x="94.1952642197" y="893" type="qcurve" smooth="yes"/>
			<point x="170.9120000596" y="1222"/>
			<point x="712.3566894531" y="1561.9238891602"/>
			<point x="941.2045415635" y="1520.8578491211" type="qcurve" smooth="yes"/>
			<point x="1290.4525146484" y="1467.798828125"/>
			<point x="1518.479749083" y="1039"/>
			<point x="1439.1741460557" y="684" type="qcurve" smooth="yes"/>
			<point x="1357.366027832" y="319"/>
			<point x="855.5451787705" y="-60.8338623047"/>
			<point x="561.8238042588" y="-8.286315918" type="qcurve" smooth="yes"/>
			<point x="294.0919927354" y="41.8748779297"/>
			<point x="3.4785283799" y="502"/>
		</contour>
		<contour>
			<point x="264.0787481065" y="793" type="qcurve" smooth="yes"/>
			<point x="187.9384282822" y="449.6815185547"/>
			<point x="380.0776977539" y="138.1543579102"/>
			<point x="594.6360473633" y="101.5003051758" type="qcurve" smooth="yes"/>
			<point x="838.0664672852" y="60.8362426758"/>
			<point x="1181.051221251" y="412.9026489258"/>
			<point x="1251.1936773057" y="756" type="qcurve" smooth="yes"/>
			<point x="1320.3532232041" y="1091.3013916016"/>
			<point x="1082.7187017197" y="1364.298034668"/>
			<point x="870.2489751572" y="1393.6547241211" type="qcurve" smooth="yes"/>
			<point x="647.0565923447" y="1424.6154174805"/>
			<point x="331.2304815049" y="1099.9958496094"/>
		</contour>
		<contour>
			<point x="382" y="-3" type="qcurve"/>
			<point x="1167.1549810166" y="-247.6351928711" type="line" smooth="yes"/>
			<point x="1252.9105352158" y="-286.9613037109"/>
			<point x="1389.4140142197" y="-238.1524658203"/>
			<point x="1445.8336919541" y="-181.4072875977" type="qcurve"/>
			<point x="1537.8327764268" y="-255.408203125" type="line"/>
			<point x="1540.7230352158" y="-232.7702636719"/>
			<point x="1272.4627813096" y="-437.1502685547"/>
			<point x="1168.6396001572" y="-418.5133666992" type="qcurve"/>
			<point x="456.4472783799" y="-142.6200561523" type="line"/>
			<point x="392.740674376" y="-121.2077026367"/>
			<point x="257.752393126" y="-153.0844116211"/>
			<point x="189.603162169" y="-177.0106811523" type="qcurve"/>
			<point x="156.5208867783" y="-99.7427368164" type="line"/>
			<point x="121.9530156846" y="-121.8697509766"/>
			<point x="296" y="5"/>
		</contour>
		<contour>
			<point x="320" y="-53" type="line"/>
			<point x="426" y="75"/>
			<point x="562.0991210938" y="88.76953125"/>
			<point x="656.5909423828" y="204.3662719727" type="qcurve" smooth="yes"/>
			<point x="668.0794677734" y="216.877746582"/>
			<point x="654" y="332"/>
			<point x="693.9286499023" y="234.5400390625" type="qcurve"/>
			<point x="703.4401245117" y="223.6908569336"/>
			<point x="785.4418334961" y="176.184753418"/>
			<point x="790.9533081055" y="159.6962280273" type="qcurve"/>
			<point x="776.7205200195" y="142.951965332"/>
			<point x="759.6156005859" y="134.3126220703"/>
			<point x="748.999206543" y="123.5454101562" type="qcurve" smooth="yes"/>
			<point x="663.1246948242" y="34.5200805664"/>
			<point x="506" y="28"/>
			<point x="401" y="-88" type="qcurve"/>
		</contour>
	</outline>
	<anchor name="bottom" x="832" y="0"/>
	<anchor name="top" x="832" y="1500"/>
</glyph>
<glyph name="T" format="2">
	<unicode hex="0054"/>
	<advance width="1159"/>
	<outline>
		<contour>
			<point x="82.9840698242" y="1094.8693847656" type="line"/>
			<point x="163.010925293" y="1500" type="line"/>
			<point x="1222.9904174805" y="1500" type="line"/>
			<point x="1142.9635620117" y="1094.8693847656" type="line"/>
			<point x="1041.9680786133" y="1094.8693847656" type="line"/>
			<point x="1069.461730957" y="1379.822265625" type="line"/>
			<point x="785.3051757812" y="1379.822265625" type="line"/>
			<point x="771.3051757812" y="1359.822265625" type="line"/>
			<point x="647.8400878906" y="754" type="line"/>
			<point x="528.7698974609" y="114.9990234375" type="line"/>
			<point x="762.6906738281" y="99.9990234375" type="line"/>
			<point x="759.6193847656" y="0" type="line"/>
			<point x="142.3226318359" y="0" type="line"/>
			<point x="150.3939208984" y="99.9990234375" type="line"/>
			<point x="361.2495117188" y="114.9990234375" type="line"/>
			<point x="485.3197021484" y="754" type="line"/>
			<point x="605.7847900391" y="1359.822265625" type="line"/>
			<point x="601.7847900391" y="1379.822265625" type="line"/>
			<point x="269.4697875977" y="1379.822265625" type="line"/>
			<point x="183.9795532227" y="1094.8693847656" type="line"/>
		</contour>
	</outline>
	<anchor name="bottom" x="451" y="0"/>
	<anchor name="center" x="584" y="750"/>
	<anchor name="top" x="732" y="1500"/>
	<anchor name="cy_descender" x="755" y="100"/>
</glyph>
<glyph name="U" format="2">
	<unicode hex="0055"/>
	<advance width="1458"/>
	<outline>
		<contour>
			<point x="151.8003540039" y="1389.0009765625" type="line"/>
			<point x="159.0668334961" y="1500" type="line"/>
			<point x="745.3255337802" y="1500" type="line"/>
			<point x="735.059054288" y="1389.0009765625" type="line"/>
			<point x="533.0041503906" y="1354.0009765625" type="line"/>
			<point x="428.0639648438" y="801" type="line" smooth="yes"/>
			<point x="380.2003173828" y="553.9323730469"/>
			<point x="353.6590576172" y="327.7338256836"/>
			<point x="363.8682583896" y="265.4611206055" type="qcurve" smooth="yes"/>
			<point x="386.7838745117" y="241.9390869141"/>
			<point x="495.6395596591" y="116.9765625"/>
			<point x="590.7626675693" y="116.9765625" type="qcurve" smooth="yes"/>
			<point x="767.2975186435" y="116.9765625"/>
			<point x="925.2852505771" y="281.9324951172"/>
			<point x="961.7092007724" y="468.486328125" type="qcurve" smooth="yes"/>
			<point x="1023.8158291904" y="801" type="line"/>
			<point x="1127.7560147372" y="1354.0009765625" type="line"/>
			<point x="912.8352383701" y="1389.0009765625" type="line"/>
			<point x="921.293795499" y="1500" type="line"/>
			<point x="1487.8301114169" y="1500" type="line"/>
			<point x="1470.5636319247" y="1389.0009765625" type="line"/>
			<point x="1268.696932706" y="1354.0009765625" type="line"/>
			<point x="1158.9488247958" y="801" type="line"/>
			<point x="1097.9488247958" y="465" type="line" smooth="yes"/>
			<point x="1058.6921719638" y="248.271484375"/>
			<point x="812.3418301669" y="-14.427734375"/>
			<point x="577.8990811435" y="-14.427734375" type="qcurve" smooth="yes"/>
			<point x="434.619967374" y="-14.427734375"/>
			<point x="214.4383544922" y="141"/>
			<point x="191.5227383701" y="343" type="qcurve" smooth="yes"/>
			<point x="181.3135375977" y="416"/>
			<point x="223.3135375977" y="674"/>
			<point x="248.3135375977" y="801" type="qcurve" smooth="yes"/>
			<point x="357.2537231445" y="1354.0009765625" type="line"/>
		</contour>
	</outline>
	<anchor name="bottom" x="588" y="0"/>
	<anchor name="ogonek" x="810" y="0"/>
	<anchor name="top" x="908" y="1500"/>
	<anchor name="topright" x="1561" y="1500"/>
</glyph>
<glyph name="V" format="2">
	<unicode hex="0056"/>
	<advance width="1242"/>
	<outline>
		<contour>
			<point x="15.8648071289" y="1382.0909423828" type="line"/>
			<point x="35.989440918" y="1500" type="line"/>
			<point x="581.8765869141" y="1500" type="line"/>
			<point x="562.1419677734" y="1383.9110107422" type="line"/>
			<point x="362.4272460938" y="1349.0009765625" type="line"/>
			<point x="410.0341796875" y="786.0161743164" type="line"/>
			<point x="438" y="390" type="line"/>
			<point x="442" y="261" type="line"/>
			<point x="460" y="261" type="line"/>
			<point x="527" y="390" type="line"/>
			<point x="783.9870605469" y="909.174987793" type="line"/>
			<point x="1028.8120727539" y="1349.0009765625" type="line"/>
			<point x="813.8339233398" y="1383.7810058594" type="line"/>
			<point x="832.307800293" y="1500" type="line"/>
			<point x="1371.3256835938" y="1500" type="line"/>
			<point x="1355.4617919922" y="1381.9609375" type="line"/>
			<point x="1157.3343505859" y="1349.0009765625" type="line"/>
			<point x="858.0725097656" y="816.6658935547" type="line"/>
			<point x="426.8886108398" y="-1.1430664062" type="line"/>
			<point x="326.7934570312" y="-1.1430664062" type="line"/>
			<point x="253.5709228516" y="747.8492431641" type="line"/>
			<point x="209.1231079102" y="1349.0009765625" type="line"/>
		</contour>
	</outline>
	<anchor name="bottom" x="373" y="0"/>
	<anchor name="top" x="743" y="1500"/>
</glyph>
<glyph name="W" format="2">
	<unicode hex="0057"/>
	<advance width="1999"/>
	<outline>
		<contour>
			<point x="-6.9327392578" y="1381.0009765625" type="line"/>
			<point x="13.6596679688" y="1500" type="line"/>
			<point x="565.7963867188" y="1500" type="line"/>
			<point x="551.2039794922" y="1387.0009765625" type="line"/>
			<point x="392.6520996094" y="1350.0009765625" type="line"/>
			<point x="379.3775024414" y="797.7863769531" type="line"/>
			<point x="380.0883178711" y="331.7840576172" type="line"/>
			<point x="373.4548339844" y="198.9073486328" type="line"/>
			<point x="385.4548339844" y="194.9073486328" type="line"/>
			<point x="459.7197265625" y="326.757019043" type="line"/>
			<point x="722.7053222656" y="778.2557373047" type="line"/>
			<point x="920.9193725586" y="1080.7412719727" type="line"/>
			<point x="924.5122680664" y="1350.0009765625" type="line"/>
			<point x="770.7537231445" y="1383.0009765625" type="line"/>
			<point x="783.8135375977" y="1500" type="line"/>
			<point x="1300.9237060547" y="1500" type="line"/>
			<point x="1288.9290771484" y="1390.0009765625" type="line"/>
			<point x="1109.5075683594" y="1350.0009765625" type="line"/>
			<point x="1115.1388549805" y="922.844909668" type="line"/>
			<point x="1127.4359741211" y="330.2381591797" type="line"/>
			<point x="1125.0003662109" y="209.9073486328" type="line"/>
			<point x="1136.0003662109" y="204.9073486328" type="line"/>
			<point x="1205.4199829102" y="327.7487792969" type="line"/>
			<point x="1495.6343383789" y="860.1322021484" type="line"/>
			<point x="1756.2171020508" y="1349.0009765625" type="line"/>
			<point x="1539.3615112305" y="1383.0009765625" type="line"/>
			<point x="1562.0953979492" y="1500" type="line"/>
			<point x="2121.4981079102" y="1500" type="line"/>
			<point x="2107.7642211914" y="1385.0009765625" type="line"/>
			<point x="1906.2123413086" y="1349.0009765625" type="line"/>
			<point x="1571.8409423828" y="754.7034301758" type="line"/>
			<point x="1118.7465209961" y="-1.1430664062" type="line"/>
			<point x="964.5968017578" y="-1.1430664062" type="line"/>
			<point x="920.2009277344" y="807.4040527344" type="line"/>
			<point x="923.0294189453" y="967.33203125" type="line"/>
			<point x="913.0294189453" y="967.33203125" type="line"/>
			<point x="829.0972290039" y="808.0227661133" type="line"/>
			<point x="353.7710571289" y="-1.1430664062" type="line"/>
			<point x="230.8016967773" y="-1.1430664062" type="line"/>
			<point x="221.5035400391" y="756.9374389648" type="line"/>
			<point x="201.4776611328" y="1350.0009765625" type="line"/>
		</contour>
	</outline>
	<anchor name="bottom" x="691" y="0"/>
	<anchor name="top" x="981" y="1500"/>
</glyph>
<glyph name="X" format="2">
	<unicode hex="0058"/>
	<advance width="1262"/>
	<outline>
		<contour>
			<point x="-171.241027832" y="0" type="line"/>
			<point x="-163.6371459961" y="99.9990234375" type="line"/>
			<point x="35.3821411133" y="128.9990234375" type="line"/>
			<point x="513" y="764" type="line"/>
			<point x="295.0925292969" y="1351.0009765625" type="line"/>
			<point x="106.1384277344" y="1387.0009765625" type="line"/>
			<point x="116.8723144531" y="1500" type="line"/>
			<point x="611.0127563477" y="1500" type="line"/>
			<point x="600.2788696289" y="1387.0009765625" type="line"/>
			<point x="463.9225463867" y="1353.0009765625" type="line"/>
			<point x="581" y="1027" type="line"/>
			<point x="627" y="913" type="line"/>
			<point x="638" y="913" type="line"/>
			<point x="724" y="1027" type="line"/>
			<point x="896.6605834961" y="1346.0009765625" type="line"/>
			<point x="715.9783325195" y="1387.0009765625" type="line"/>
			<point x="726.7122192383" y="1500" type="line"/>
			<point x="1290.9844360352" y="1500" type="line"/>
			<point x="1280.2505493164" y="1387.0009765625" type="line"/>
			<point x="1072.9053344727" y="1351.0009765625" type="line"/>
			<point x="670" y="808" type="line"/>
			<point x="930.5770263672" y="129.9990234375" type="line"/>
			<point x="1117.7918701172" y="99.9990234375" type="line"/>
			<point x="1110.1879882812" y="0" type="line"/>
			<point x="601.7581787109" y="0" type="line"/>
			<point x="609.3620605469" y="99.9990234375" type="line"/>
			<point x="765.2509765625" y="128.9990234375" type="line"/>
			<point x="603" y="544" type="line"/>
			<point x="556" y="658" type="line"/>
			<point x="546" y="658" type="line"/>
			<point x="461" y="544" type="line"/>
			<point x="211.6268920898" y="134.9990234375" type="line"/>
			<point x="423.3091430664" y="99.9990234375" type="line"/>
			<point x="412.3425292969" y="0" type="line"/>
		</contour>
	</outline>
	<anchor name="bottom" x="453" y="0"/>
	<anchor name="top" x="723" y="1500"/>
	<anchor name="cy_descender" x="1125" y="100"/>
	<anchor name="center" x="591" y="791"/>
</glyph>
<glyph name="Y" format="2">
	<unicode hex="0059"/>
	<advance width="1114"/>
	<outline>
		<contour>
			<point x="68.0856323242" y="0" type="line"/>
			<point x="70.6895141602" y="99.9990234375" type="line"/>
			<point x="290.2080688477" y="114.9990234375" type="line"/>
			<point x="391.4816894531" y="642.5038452148" type="line"/>
			<point x="342.5571289062" y="934.6565551758" type="line"/>
			<point x="223.2463989258" y="1346.0009765625" type="line"/>
			<point x="45.0204467773" y="1388.0009765625" type="line"/>
			<point x="52.7543334961" y="1500" type="line"/>
			<point x="568.1237182617" y="1500" type="line"/>
			<point x="560.389831543" y="1388.0009765625" type="line"/>
			<point x="386.0335083008" y="1355.0009765625" type="line"/>
			<point x="454.969909668" y="1074.4916381836" type="line"/>
			<point x="609" y="783" type="line"/>
			<point x="619" y="783" type="line"/>
			<point x="824" y="1077" type="line"/>
			<point x="827.4092407227" y="1348.0009765625" type="line"/>
			<point x="646.1403198242" y="1388.0009765625" type="line"/>
			<point x="653.874206543" y="1500" type="line"/>
			<point x="1168.41015625" y="1500" type="line"/>
			<point x="1160.6762695312" y="1388.0009765625" type="line"/>
			<point x="963.4503173828" y="1347.0009765625" type="line"/>
			<point x="903" y="1013" type="line"/>
			<point x="551.1576538086" y="638.6796264648" type="line"/>
			<point x="453.755065918" y="124.9990234375" type="line"/>
			<point x="693.741027832" y="99.9990234375" type="line"/>
			<point x="687.1371459961" y="0" type="line"/>
		</contour>
	</outline>
	<anchor name="bottom" x="443" y="0"/>
	<anchor name="top" x="731" y="1500"/>
	<anchor name="tonos" x="-13" y="1500"/>
	<anchor name="center" x="553" y="579"/>
</glyph>
<glyph name="Z" format="2">
	<unicode hex="005A"/>
	<advance width="1058"/>
	<outline>
		<contour>
			<point x="-115.384765625" y="0" type="line"/>
			<point x="-124.58984375" y="93.9514160156" type="line"/>
			<point x="430.4078979492" y="797.707824707" type="line"/>
			<point x="883.9489135742" y="1368.796875" type="line"/>
			<point x="878.9489135742" y="1383.796875" type="line"/>
			<point x="325.0796508789" y="1383.796875" type="line"/>
			<point x="210.6572875977" y="1103.9284667969" type="line"/>
			<point x="118.9287719727" y="1103.9284667969" type="line"/>
			<point x="196.0911254883" y="1500" type="line"/>
			<point x="1123.4558105469" y="1500" type="line"/>
			<point x="1107.1513671875" y="1386.4523925781" type="line"/>
			<point x="551.5130004883" y="692.5137939453" type="line"/>
			<point x="123.9514770508" y="134.2094726562" type="line"/>
			<point x="128.9514770508" y="115.2094726562" type="line"/>
			<point x="719.9610595703" y="115.2094726562" type="line"/>
			<point x="862.7337646484" y="407.9660644531" type="line"/>
			<point x="967.4622802734" y="407.9660644531" type="line"/>
			<point x="847.0489501953" y="0" type="line"/>
		</contour>
	</outline>
	<anchor name="bottom" x="383" y="0"/>
	<anchor name="top" x="643" y="1500"/>
	<anchor name="_liga" x="0" y="0"/>
</glyph>
<glyph name="c" format="2">
	<unicode hex="0063"/>
	<advance width="969"/>
	<outline>
		<contour>
			<point x="6.9340820312" y="490.9995117188" type="qcurve" smooth="yes"/>
			<point x="43.1245117188" y="731.4040527344"/>
			<point x="450.1420898438" y="1028.9990234375"/>
			<point x="642.1637573242" y="1028.9990234375" type="qcurve" smooth="yes"/>
			<point x="727.4445800781" y="1028.9990234375"/>
			<point x="874.3929443359" y="923.9667358398"/>
			<point x="869.3929443359" y="844.6328735352" type="qcurve" smooth="yes"/>
			<point x="865.3929443359" y="759.5848388672"/>
			<point x="782.9843139648" y="642.774597168"/>
			<point x="738.0098266602" y="622.774597168" type="qcurve"/>
			<point x="711.4943847656" y="648.774597168" type="line"/>
			<point x="711.9467773438" y="819.7903442383" type="line" smooth="yes"/>
			<point x="711.9467773438" y="868.7903442383"/>
			<point x="674.9385986328" y="909.7903442383"/>
			<point x="589.8444824219" y="909.7903442383" type="qcurve" smooth="yes"/>
			<point x="406.0002441406" y="909.7903442383"/>
			<point x="242.5974731445" y="764.8870849609"/>
			<point x="197.35546875" y="541.2257080078" type="qcurve" smooth="yes"/>
			<point x="147.5859375" y="298.0723266602"/>
			<point x="240.5198364258" y="98.4630126953"/>
			<point x="377.229309082" y="98.4630126953" type="qcurve" smooth="yes"/>
			<point x="536.2082519531" y="98.4630126953"/>
			<point x="734.5323486328" y="191.0653686523"/>
			<point x="792.9182128906" y="280.3189086914" type="qcurve"/>
			<point x="824.4792480469" y="248" type="line"/>
			<point x="824.4792480469" y="178" type="line"/>
			<point x="758.7808227539" y="97.5236206055"/>
			<point x="529.6463623047" y="-29"/>
			<point x="319.1058959961" y="-29" type="qcurve" smooth="yes"/>
			<point x="156.5723876953" y="-29"/>
			<point x="-31.4825439453" y="242.9163818359"/>
		</contour>
	</outline>
	<anchor name="bottom" x="343" y="0"/>
	<anchor name="top" x="600" y="1000"/>
</glyph>
<glyph name="d" format="2">
	<unicode hex="0064"/>
	<advance width="1100"/>
	<outline>
		<contour>
			<point x="-32.11328125" y="315.7259521484" type="qcurve" smooth="yes"/>
			<point x="-19.11328125" y="564.3803710938"/>
			<point x="379.6755371094" y="999.1734008789"/>
			<point x="664.4354858398" y="1007.2489013672" type="qcurve" smooth="yes"/>
			<point x="753.3611450195" y="1007.2489013672" type="line"/>
			<point x="841.6602172852" y="1447.7995605469" type="line"/>
			<point x="696.639831543" y="1535.7092895508" type="line"/>
			<point x="724.2297363281" y="1611.7088012695" type="line"/>
			<point x="934.3928833008" y="1658.7990722656" type="line"/>
			<point x="1014.3928833008" y="1557.7990722656" type="line"/>
			<point x="793.6713256836" y="469" type="line"/>
			<point x="735.1612548828" y="144.9995117188" type="line"/>
			<point x="896.0770263672" y="137.0897827148" type="line"/>
			<point x="893.487121582" y="46.0902709961" type="line"/>
			<point x="652.8925170898" y="-8" type="line"/>
			<point x="596.8925170898" y="76" type="line"/>
			<point x="580.8925170898" y="184" type="line"/>
			<point x="535.112121582" y="90.9047851562"/>
			<point x="239.1458740234" y="-10"/>
			<point x="211.9426879883" y="-10" type="qcurve" smooth="yes"/>
			<point x="71.2728881836" y="-10"/>
			<point x="-41.11328125" y="147.7974853516"/>
		</contour>
		<contour>
			<point x="145.7182006836" y="314.6472167969" type="qcurve" smooth="yes"/>
			<point x="130.7182006836" y="219.1321411133"/>
			<point x="196.6173706055" y="139.7008056641"/>
			<point x="256.151184082" y="139.7008056641" type="qcurve" smooth="yes"/>
			<point x="403.3986206055" y="139.7008056641"/>
			<point x="592.3900756836" y="334.5252075195"/>
			<point x="627.0916137695" y="513.9370117188" type="qcurve" smooth="yes"/>
			<point x="694.6146850586" y="850.5323486328" type="line"/>
			<point x="679.6063842773" y="871.5323486328"/>
			<point x="626.5524902344" y="900.5323486328"/>
			<point x="582.9573974609" y="900.5323486328" type="qcurve" smooth="yes"/>
			<point x="420.2841186523" y="900.5323486328"/>
			<point x="189.7182006836" y="577.8559570312"/>
		</contour>
	</outline>
	<anchor name="bottom" x="604" y="0"/>
	<anchor name="center" x="876" y="1202"/>
	<anchor name="top" x="704" y="1534"/>
	<anchor name="topright" x="1076" y="1000"/>
	<anchor name="liga" x="1067" y="0"/>
</glyph>
<glyph name="m" format="2">
	<unicode hex="006D"/>
	<advance width="1755"/>
	<outline>
		<contour>
			<point x="44.0026855469" y="6" type="line"/>
			<point x="35.0026855469" y="133" type="line"/>
			<point x="123.455078125" y="495.2261962891" type="line"/>
			<point x="182.188293457" y="802.9995117188" type="line"/>
			<point x="40.8613891602" y="793.91015625" type="line"/>
			<point x="41.4512939453" y="895.9096679688" type="line"/>
			<point x="92.7579956055" y="1008.9990234375" type="line"/>
			<point x="284.7579956055" y="1008.9990234375" type="line"/>
			<point x="296.3232421875" y="654.6683349609" type="line"/>
			<point x="304.6748657227" y="636.2261962891" type="line"/>
			<point x="190.2224731445" y="108" type="line"/>
			<point x="212.2224731445" y="25" type="line"/>
		</contour>
		<contour>
			<point x="653.9271240234" y="-9" type="line"/>
			<point x="633.9271240234" y="119" type="line"/>
			<point x="772.2398071289" y="760.9958496094" type="line" smooth="yes"/>
			<point x="779.5120239258" y="795.6585083008"/>
			<point x="723.2341918945" y="859.9958496094"/>
			<point x="644.5896606445" y="859.9958496094" type="qcurve" smooth="yes"/>
			<point x="553.8978881836" y="859.9958496094"/>
			<point x="356.2629394531" y="759.4874267578"/>
			<point x="273.0654907227" y="693.4963989258" type="qcurve"/>
			<point x="259.9744873047" y="745.4320068359" type="line"/>
			<point x="262.0390014648" y="769.3211669922"/>
			<point x="558.6806640625" y="1018.9990234375"/>
			<point x="682.1744995117" y="1018.9990234375" type="qcurve" smooth="yes"/>
			<point x="779.8167724609" y="1018.9990234375"/>
			<point x="948.3571166992" y="783.1306152344"/>
			<point x="905.4212646484" y="638.9990234375" type="qcurve" smooth="yes"/>
			<point x="800.8857421875" y="155" type="line"/>
			<point x="809.8857421875" y="28" type="line"/>
		</contour>
		<contour>
			<point x="1256.1348266602" y="-13" type="line"/>
			<point x="1228.1348266602" y="117" type="line"/>
			<point x="1362.4475097656" y="760.9958496094" type="line" smooth="yes"/>
			<point x="1369.7197265625" y="795.6585083008"/>
			<point x="1296.373840332" y="859.9958496094"/>
			<point x="1221.729309082" y="859.9958496094" type="qcurve" smooth="yes"/>
			<point x="1139.8333740234" y="859.9958496094"/>
			<point x="967.5178833008" y="764.6915893555"/>
			<point x="885.7436523438" y="711.2501220703" type="qcurve"/>
			<point x="868.1303100586" y="768.4617919922" type="line"/>
			<point x="839.7282104492" y="752.9880981445"/>
			<point x="1121.8526611328" y="1018.9990234375"/>
			<point x="1227.1320800781" y="1018.9990234375" type="qcurve" smooth="yes"/>
			<point x="1366.1418457031" y="1018.9990234375"/>
			<point x="1529.5739135742" y="784.7677001953"/>
			<point x="1492.614074707" y="638.9990234375" type="qcurve" smooth="yes"/>
			<point x="1383.2884521484" y="149.9995117188" type="line"/>
			<point x="1551.0283203125" y="137.2712402344" type="line"/>
			<point x="1549.4384155273" y="49.2717285156" type="line"/>
		</contour>
	</outline>
	<anchor name="bottom" x="958" y="0"/>
	<anchor name="top" x="958" y="1000"/>
	<anchor name="cy_descender" x="1572" y="134"/>
</glyph>
<glyph name="n" format="2">
	<unicode hex="006E"/>
	<advance width="1164"/>
	<outline>
		<contour>
			<point x="61.887878418" y="-27.7133789062" type="line"/>
			<point x="29.0137329102" y="54.0632324219" type="line"/>
			<point x="123.0026855469" y="495" type="line"/>
			<point x="186.9431152344" y="822.5963134766" type="line"/>
			<point x="44.8562011719" y="813.5069580078" type="line"/>
			<point x="45.219909668" y="915.5064697266" type="line"/>
			<point x="258.5770874023" y="1000.6795654297" type="line"/>
			<point x="296.0638427734" y="1000.6795654297" type="line"/>
			<point x="318.908996582" y="694.2183837891" type="line"/>
			<point x="320.5283203125" y="636" type="line"/>
			<point x="194.755859375" y="27.0632324219" type="line"/>
			<point x="222.8018188477" y="0.8238525391" type="line"/>
		</contour>
		<contour>
			<point x="707.0552368164" y="-14" type="line"/>
			<point x="666.5698852539" y="93.3883056641" type="line"/>
			<point x="789.1720581055" y="729.8035888672" type="line" smooth="yes"/>
			<point x="801.528503418" y="788.4918212891"/>
			<point x="769.6977539062" y="883.7883911133"/>
			<point x="674.5010986328" y="883.7883911133" type="qcurve" smooth="yes"/>
			<point x="577.7412719727" y="883.7883911133"/>
			<point x="335.9128417969" y="672.1767578125"/>
			<point x="300.6685791016" y="635.0858154297" type="qcurve"/>
			<point x="240.8786621094" y="663.6773071289" type="line"/>
			<point x="304.1463012695" y="774.9418334961"/>
			<point x="625.6029052734" y="1022.9995727539"/>
			<point x="761.217956543" y="1022.9995727539" type="qcurve" smooth="yes"/>
			<point x="847.2395629883" y="1022.9995727539"/>
			<point x="986.1461181641" y="882.1618652344"/>
			<point x="965.2868041992" y="777.6697387695" type="qcurve" smooth="yes"/>
			<point x="838.1333007812" y="149.9995117188" type="line"/>
			<point x="1005.4931640625" y="136.8168334961" type="line"/>
			<point x="1003.9032592773" y="48.8173217773" type="line"/>
		</contour>
	</outline>
	<anchor name="bottom" x="522" y="0"/>
	<anchor name="top" x="602" y="1000"/>
	<anchor name="liga" x="1173" y="0"/>
</glyph>
<glyph name="q" format="2">
	<unicode hex="0071"/>
	<advance width="1094"/>
	<outline>
		<contour>
			<point x="-15.8305664062" y="319.4760742188" type="qcurve" smooth="yes"/>
			<point x="-58.2852783203" y="566.0589599609"/>
			<point x="337.0267944336" y="1015.8559570312"/>
			<point x="643.6248168945" y="1014.8559570312" type="qcurve" smooth="yes"/>
			<point x="725.963684082" y="1014.8559570312"/>
			<point x="839.3934936523" y="963.8559570312"/>
			<point x="870.6497192383" y="935.8559570312" type="qcurve"/>
			<point x="710.2944335938" y="1012.8559570312" type="line"/>
			<point x="853.2944335938" y="1012.8559570312" type="line"/>
			<point x="904.2944335938" y="805.8559570312" type="line"/>
			<point x="849.3422851562" y="562" type="line"/>
			<point x="660.7827758789" y="-344.0869140625" type="line"/>
			<point x="801.7535400391" y="-379.7239990234" type="line"/>
			<point x="771.7944946289" y="-454.7235107422" type="line"/>
			<point x="633.1537475586" y="-486.0864257812" type="line"/>
			<point x="542.1537475586" y="-391.0864257812" type="line"/>
			<point x="655.1522827148" y="140" type="line"/>
			<point x="651.1522827148" y="142" type="line"/>
			<point x="532.8399047852" y="64.8251342773"/>
			<point x="340.0935058594" y="-10"/>
			<point x="278.9658813477" y="-10" type="qcurve" smooth="yes"/>
			<point x="153.299987793" y="-10"/>
			<point x="4.85546875" y="201.3188476562"/>
		</contour>
		<contour>
			<point x="113.6967163086" y="289.3178100586" type="qcurve" smooth="yes"/>
			<point x="114.6223754883" y="219.3158569336"/>
			<point x="208.7421875" y="147.2401733398"/>
			<point x="294.8789672852" y="147.2401733398" type="qcurve" smooth="yes"/>
			<point x="438.5321655273" y="147.2401733398"/>
			<point x="651.7770385742" y="261.4415283203"/>
			<point x="694.5491333008" y="519.9842529297" type="qcurve" smooth="yes"/>
			<point x="761.4888916016" y="844.9331054688" type="line"/>
			<point x="750.1500244141" y="870.6851806641"/>
			<point x="670.1302490234" y="894.9331054688"/>
			<point x="604.0227050781" y="894.9331054688" type="qcurve" smooth="yes"/>
			<point x="391.8802490234" y="894.9331054688"/>
			<point x="135.837097168" y="607.6165771484"/>
		</contour>
	</outline>
	<anchor name="bottom" x="594" y="0"/>
	<anchor name="top" x="594" y="1000"/>
</glyph>
<glyph name="r" format="2">
	<unicode hex="0072"/>
	<advance width="939"/>
	<outline>
		<contour>
			<point x="71.7496337891" y="-24.3194580078" type="line"/>
			<point x="36.0899047852" y="133.3194580078" type="line"/>
			<point x="142.5454711914" y="525" type="line"/>
			<point x="187.7916870117" y="785.5867919922" type="line"/>
			<point x="51.3801269531" y="785.362487793" type="line"/>
			<point x="50.9700317383" y="888.3619995117" type="line"/>
			<point x="107.2249755859" y="993.5863037109" type="line"/>
			<point x="298.2249755859" y="993.5863037109" type="line"/>
			<point x="324.8847045898" y="810.2252197266" type="line"/>
			<point x="336.7694091797" y="675.716796875" type="line"/>
			<point x="231.6987304688" y="168.1828613281" type="line"/>
			<point x="397.5097045898" y="126.8391113281" type="line"/>
			<point x="392.7297973633" y="27.5201416016" type="line"/>
		</contour>
		<contour>
			<point x="641.2628469502" y="570.3303833008" type="line"/>
			<point x="641.7979797997" y="817.8609721146" type="line"/>
			<point x="534.9284729637" y="817.8609721146"/>
			<point x="343.4462656621" y="721.3034380957"/>
			<point x="249.7392954473" y="657.8193461381" type="qcurve"/>
			<point x="209.8847045898" y="721.2252197266" type="line"/>
			<point x="348.5028076172" y="834.361328125"/>
			<point x="621.4876098633" y="1007.5863037109"/>
			<point x="739.032043457" y="1007.5863037109" type="qcurve" smooth="yes"/>
			<point x="824.1000976562" y="1007.5863037109"/>
			<point x="926.4403686523" y="940.5446777344"/>
			<point x="926.4403686523" y="858.5446777344" type="qcurve" smooth="yes"/>
			<point x="926.4403686523" y="719.5446777344"/>
			<point x="772.5084228516" y="570.3303833008"/>
			<point x="669.1681518555" y="570.3303833008" type="qcurve" smooth="yes"/>
		</contour>
	</outline>
	<anchor name="bottom" x="282" y="0"/>
	<anchor name="top" x="486" y="1000"/>
</glyph>
<glyph name="v" format="2">
	<unicode hex="0076"/>
	<advance width="966"/>
	<outline>
		<contour>
			<point x="233.6928100586" y="-9.1430664062" type="line"/>
			<point x="161.0081787109" y="510.6666259766" type="line"/>
			<point x="114.0116577148" y="802.2257080078" type="line"/>
			<point x="-18.3754882812" y="794.4998779297" type="line"/>
			<point x="-16.3255004883" y="888.4993896484" type="line"/>
			<point x="202.8170166016" y="1013.2252197266" type="line"/>
			<point x="278.4965820312" y="1013.2252197266" type="line"/>
			<point x="337.9426879883" y="478.3149414062" type="line"/>
			<point x="356.9002075195" y="263.6020507812" type="line"/>
			<point x="365.6758422852" y="149.3533325195" type="line"/>
			<point x="375.6758422852" y="149.3533325195" type="line"/>
			<point x="460.2449951172" y="258.823425293" type="line"/>
			<point x="643.5736083984" y="487.7286987305"/>
			<point x="703.4701538086" y="623.3485107422"/>
			<point x="703.4701538086" y="683.8142700195" type="qcurve" smooth="yes"/>
			<point x="703.4701538086" y="746.9185180664"/>
			<point x="580.8203735352" y="851.5379638672"/>
			<point x="580.8203735352" y="900.1874389648" type="qcurve" smooth="yes"/>
			<point x="580.8203735352" y="949.7698974609"/>
			<point x="657.0958862305" y="1025.4620361328"/>
			<point x="718.4104003906" y="1025.4620361328" type="qcurve" smooth="yes"/>
			<point x="766.7567749023" y="1025.4620361328"/>
			<point x="859.763671875" y="955.341796875"/>
			<point x="855.763671875" y="831.6887817383" type="qcurve" smooth="yes"/>
			<point x="850.763671875" y="692.7484130859"/>
			<point x="579.8962402344" y="266.4833374023"/>
			<point x="365.6150512695" y="2.8569335938" type="qcurve"/>
		</contour>
	</outline>
	<anchor name="bottom" x="513" y="0"/>
	<anchor name="top" x="513" y="1000"/>
</glyph>
<glyph name="w" format="2">
	<unicode hex="0077"/>
	<advance width="1346"/>
	<outline>
		<contour>
			<point x="180.5339355469" y="-8" type="line"/>
			<point x="125.5596313477" y="486.1834106445" type="line"/>
			<point x="84.0116577148" y="804.2257080078" type="line"/>
			<point x="-51.6427612305" y="793.7725219727" type="line"/>
			<point x="-56.0528564453" y="887.7720336914" type="line"/>
			<point x="38.2443237305" y="1013.2252197266" type="line"/>
			<point x="229.2443237305" y="1013.2252197266" type="line"/>
			<point x="266.4161376953" y="522.8087158203" type="line"/>
			<point x="291.3055419922" y="216.1508178711" type="line"/>
			<point x="293.2322387695" y="138.6452636719" type="line"/>
			<point x="303.2322387695" y="138.6452636719" type="line"/>
			<point x="352.7588500977" y="217.282409668" type="line"/>
			<point x="408.4306640625" y="290.5832519531"/>
			<point x="457.6876831055" y="352.9517211914"/>
			<point x="502.1052246094" y="411.4897460938" type="qcurve"/>
			<point x="456.4644775391" y="833.7331542969" type="line"/>
			<point x="423.6852416992" y="825.3982543945" type="line"/>
			<point x="419.9022827148" y="931.2791748047" type="line"/>
			<point x="404.5608520508" y="1013.2252197266" type="line"/>
			<point x="594.8071289062" y="1013.2252197266" type="line"/>
			<point x="665.9267578125" y="493.1680297852" type="line"/>
			<point x="694.8999023438" y="206.3467407227" type="line"/>
			<point x="703.8256835938" y="131.1042480469" type="line"/>
			<point x="713.8256835938" y="131.1042480469" type="line"/>
			<point x="771.5892944336" y="209.6065673828" type="line"/>
			<point x="935.7504882812" y="423.9339599609"/>
			<point x="1049.5662841797" y="621.2355957031"/>
			<point x="1039.9158935547" y="693.3724975586" type="qcurve" smooth="yes"/>
			<point x="1031.7733764648" y="759.2627563477"/>
			<point x="881.5080566406" y="859.0262451172"/>
			<point x="882.0006103516" y="926.4039306641" type="qcurve" smooth="yes"/>
			<point x="881.4931640625" y="969.0682983398"/>
			<point x="949.6798706055" y="1041.2252197266"/>
			<point x="994.7921142578" y="1040.2252197266" type="qcurve" smooth="yes"/>
			<point x="1061.7171020508" y="973.7111816406"/>
			<point x="1182.3550415039" y="937.7177734375"/>
			<point x="1182.3550415039" y="819.2103271484" type="qcurve" smooth="yes"/>
			<point x="1182.3550415039" y="672.964050293"/>
			<point x="896.1347045898" y="314.6751708984"/>
			<point x="705.6142578125" y="4" type="qcurve"/>
			<point x="577.2734985352" y="-8" type="line"/>
			<point x="532.9744873047" y="267.0419311523" type="line"/>
			<point x="526.9520263672" y="338.6125488281" type="line"/>
			<point x="516.9520263672" y="338.6125488281" type="line"/>
			<point x="475.0191650391" y="261.5152587891" type="line"/>
			<point x="425.087097168" y="190.3983154297"/>
			<point x="359.5963745117" y="98.1169433594"/>
			<point x="296.6643066406" y="4" type="qcurve"/>
		</contour>
	</outline>
	<anchor name="bottom" x="787" y="0"/>
	<anchor name="top" x="717" y="1000"/>
</glyph>
<glyph name="x" format="2">
	<unicode hex="0078"/>
	<advance width="996"/>
	<outline>
		<contour>
			<point x="127.3107299805" y="-10.7145996094" type="qcurve"/>
			<point x="-72.3258666992" y="43.4671630859" type="line"/>
			<point x="-56.3258666992" y="169.4671630859" type="line"/>
			<point x="133.3107299805" y="169.2854003906" type="line" smooth="yes"/>
			<point x="182.8225708008" y="168.3887939453"/>
			<point x="308.0723266602" y="215.7266235352"/>
			<point x="361.4730834961" y="235.1068115234" type="qcurve" smooth="yes"/>
			<point x="380.4082641602" y="225.8212890625"/>
			<point x="422.2282104492" y="244.6284790039"/>
			<point x="438.7124023438" y="236.8626098633" type="qcurve"/>
			<point x="214.7153320312" y="805.5471191406" type="line"/>
			<point x="82.5198974609" y="799.7542724609" type="line"/>
			<point x="78.5397949219" y="887.09375" type="line"/>
			<point x="215.3601074219" y="1029.5466308594" type="line"/>
			<point x="340.3601074219" y="989.5466308594" type="line"/>
			<point x="407.2666015625" y="807.2190551758" type="line"/>
			<point x="431.573425293" y="744.2852172852" type="line"/>
			<point x="441.573425293" y="744.2852172852" type="line"/>
			<point x="497.0869140625" y="802.5063476562" type="line" smooth="yes"/>
			<point x="524.5442504883" y="832.3786621094"/>
			<point x="581.3424682617" y="900.6264038086"/>
			<point x="615.8703613281" y="927.4532470703" type="qcurve" smooth="yes"/>
			<point x="655.5809936523" y="951.2391357422"/>
			<point x="754.6999511719" y="1027.8323974609"/>
			<point x="805.2713623047" y="1027.8323974609" type="qcurve" smooth="yes"/>
			<point x="842.4374389648" y="1027.8323974609"/>
			<point x="887.4180908203" y="970.329284668"/>
			<point x="886.4180908203" y="915.329284668" type="qcurve" smooth="yes"/>
			<point x="884.4180908203" y="853.329284668"/>
			<point x="839.9212036133" y="755.8323974609"/>
			<point x="827.9212036133" y="735.8323974609" type="qcurve"/>
			<point x="693.9212036133" y="735.8323974609" type="line"/>
			<point x="693.9212036133" y="773.8386230469" type="line" smooth="yes"/>
			<point x="693.9212036133" y="790.8386230469"/>
			<point x="680.6749267578" y="807.8323974609"/>
			<point x="663.2783813477" y="807.8323974609" type="qcurve" smooth="yes"/>
			<point x="639.5935668945" y="807.8323974609"/>
			<point x="560.0517578125" y="773.8493652344"/>
			<point x="532.5915527344" y="760.041015625" type="qcurve" smooth="yes"/>
			<point x="510.8099365234" y="750.1312255859"/>
			<point x="472.403137207" y="725.4152832031"/>
			<point x="432.5346679688" y="688.936340332" type="qcurve"/>
			<point x="646.9190063477" y="151.4277954102" type="line"/>
			<point x="785.3377075195" y="135.8812866211" type="line"/>
			<point x="786.7478027344" y="44.8817749023" type="line"/>
			<point x="631.6542358398" y="-9.5717163086" type="line"/>
			<point x="509.6542358398" y="29.4282836914" type="line"/>
			<point x="448.5103149414" y="172.6022949219" type="line"/>
			<point x="428.9897460938" y="223.8130493164" type="line"/>
			<point x="418.9897460938" y="223.8130493164" type="line"/>
			<point x="361.9299926758" y="175.9689331055" type="line"/>
			<point x="335.7546386719" y="159.6467895508"/>
			<point x="281.9303588867" y="98.5433349609"/>
			<point x="253.9973754883" y="81.5512084961" type="qcurve" smooth="yes"/>
			<point x="201.1794433594" y="60.7197875977"/>
			<point x="125.7647094727" y="-9.6035766602"/>
		</contour>
	</outline>
	<anchor name="bottom" x="522" y="0"/>
	<anchor name="top" x="522" y="1000"/>
	<anchor name="cy_descender" x="832" y="134"/>
	<anchor name="center" x="432" y="502"/>
</glyph>
<glyph name="y" format="2">
	<unicode hex="0079"/>
	<advance width="988"/>
	<outline>
		<contour>
			<point x="-406.9662475586" y="-418.4267578125" type="line"/>
			<point x="-374.9662475586" y="-305.4267578125" type="line"/>
			<point x="-198.7483520508" y="-305.4267578125" type="line" smooth="yes"/>
			<point x="12.4259643555" y="-305.4267578125"/>
			<point x="232.8949584961" y="-152.1209106445"/>
			<point x="326.9243774414" y="-16" type="qcurve" smooth="yes"/>
			<point x="347.4082641602" y="14" type="line"/>
			<point x="218.6278076172" y="14" type="line"/>
			<point x="226.918762207" y="79"/>
			<point x="152.2252807617" y="605.2257080078"/>
			<point x="110.9216308594" y="803.2257080078" type="qcurve"/>
			<point x="-18.3754882812" y="793.4998779297" type="line"/>
			<point x="-15.3255004883" y="888.4993896484" type="line"/>
			<point x="207.8560180664" y="1012.2252197266" type="line"/>
			<point x="267.7691040039" y="1012.2252197266" type="line"/>
			<point x="299.3469238281" y="898.2252197266" type="line"/>
			<point x="355.8053588867" y="205.9897460938" type="line"/>
			<point x="358.8067016602" y="93.4885253906" type="line"/>
			<point x="368.8067016602" y="93.4885253906" type="line"/>
			<point x="450.3858642578" y="204.4722900391" type="line" smooth="yes"/>
			<point x="549.3163452148" y="343.6225585938"/>
			<point x="715.1033325195" y="618.6322631836"/>
			<point x="697.6119995117" y="721.3120727539" type="qcurve" smooth="yes"/>
			<point x="687.0568847656" y="813.2759399414"/>
			<point x="641.1958007812" y="887.5170288086"/>
			<point x="643.1958007812" y="931.2936401367" type="qcurve" smooth="yes"/>
			<point x="644.1958007812" y="978.4654541016"/>
			<point x="696.8452758789" y="1040.8090820312"/>
			<point x="741.4351806641" y="1040.8090820312" type="qcurve" smooth="yes"/>
			<point x="793.8532714844" y="1040.8090820312"/>
			<point x="874.1790161133" y="960.1298217773"/>
			<point x="874.1790161133" y="887.3829956055" type="qcurve" smooth="yes"/>
			<point x="874.1790161133" y="739.2260742188"/>
			<point x="479.9440917969" y="142.8135375977"/>
			<point x="389.0551147461" y="-2" type="qcurve" smooth="yes"/>
			<point x="357.5631103516" y="-45" type="line" smooth="yes"/>
			<point x="231.6781616211" y="-217.2182006836"/>
			<point x="11.8895874023" y="-480.4267578125"/>
			<point x="-181.7483520508" y="-480.4267578125" type="qcurve"/>
		</contour>
	</outline>
	<anchor name="bottom" x="782" y="0"/>
	<anchor name="top" x="504" y="1000"/>
</glyph>
<glyph name="idotless" format="2">
	<unicode hex="0131"/>
	<advance width="641"/>
	<outline>
		<contour>
			<point x="109.0905761719" y="-18" type="line"/>
			<point x="58.0905761719" y="118" type="line"/>
			<point x="150.2810058594" y="495.6901855469" type="line"/>
			<point x="210.2623901367" y="807.5471191406" type="line"/>
			<point x="67.7299194336" y="800.1851196289" type="line"/>
			<point x="62.1298217773" y="909.1846313477" type="line"/>
			<point x="227.1018676758" y="1015.5466308594" type="line"/>
			<point x="377.1018676758" y="1015.5466308594" type="line"/>
			<point x="398.1018676758" y="895.5466308594" type="line"/>
			<point x="369.1018676758" y="796.5466308594" type="line"/>
			<point x="316.5305786133" y="538.6901855469" type="line"/>
			<point x="238.3100585938" y="150.9995117188" type="line"/>
			<point x="425.2048339844" y="140.3615112305" type="line"/>
			<point x="423.4249267578" y="51.3619995117" type="line"/>
		</contour>
	</outline>
	<anchor name="bottom" x="180" y="0"/>
	<anchor name="top" x="320" y="1000"/>
	<anchor name="ogonek" x="180" y="0"/>
	<anchor name="yu_dash" x="239" y="498"/>
	<anchor name="liga" x="618" y="0"/>
</glyph>
<glyph name="jdotless" format="2">
	<unicode hex="0237"/>
	<advance width="586"/>
	<outline>
		<contour>
			<point x="234.2655029297" y="806.9995117188" type="qcurve"/>
			<point x="83.0627441406" y="797.5466308594" type="line"/>
			<point x="71.6526489258" y="894.5461425781" type="line"/>
			<point x="223.5654296875" y="1015.9990234375" type="line"/>
			<point x="378.5654296875" y="1015.9990234375" type="line"/>
			<point x="402.5654296875" y="896.9990234375" type="line"/>
			<point x="376.5654296875" y="777.9990234375" type="line"/>
			<point x="269.7347412109" y="120.92578125" type="line"/>
			<point x="237.901550293" y="-188.1106567383"/>
			<point x="-21.7142944336" y="-488.1787109375"/>
			<point x="-277.8907470703" y="-488.1787109375" type="qcurve"/>
			<point x="-490.1596069336" y="-429.1787109375" type="line"/>
			<point x="-471.9497070312" y="-346.9491577148" type="line"/>
			<point x="-251.4356689453" y="-346.9491577148" type="line" smooth="yes"/>
			<point x="-98.3619995117" y="-346.0172119141"/>
			<point x="52.9783935547" y="-193.094909668"/>
			<point x="107.5447387695" y="90.92578125" type="qcurve" smooth="yes"/>
			<point x="140.8638916016" y="255.5403442383"/>
			<point x="211.8355102539" y="646.4295043945"/>
		</contour>
	</outline>
	<anchor name="bottom" x="88" y="-436"/>
	<anchor name="top" x="320" y="1000"/>
	<anchor name="_liga" x="0" y="0"/>
</glyph>
